<?xml version="1.0" standalone="no"?>
<!DOCTYPE svg PUBLIC "-//W3C//DTD SVG 20010904//EN"
 "http://www.w3.org/TR/2001/REC-SVG-20010904/DTD/svg10.dtd">
<svg version="1.0" xmlns="http://www.w3.org/2000/svg"
 width="4000.000000pt" height="4000.000000pt" viewBox="0 0 4000.000000 4000.000000"
 preserveAspectRatio="xMidYMid meet">

<g transform="translate(0.000000,4000.000000) scale(0.100000,-0.100000)"
fill="#000000" stroke="none">
<path d="M19475 34189 c-2085 -94 -4099 -750 -5835 -1899 -777 -515 -1483
-1117 -2124 -1810 -2209 -2390 -3299 -5602 -3005 -8855 223 -2476 1217 -4771
2871 -6630 362 -408 718 -754 1206 -1175 l52 -45 -45 -220 c-50 -241 -147
-712 -285 -1385 -49 -239 -123 -599 -164 -800 -103 -504 -111 -572 -110 -915
0 -291 10 -402 55 -629 153 -768 562 -1444 1169 -1933 107 -87 308 -224 415
-284 l60 -34 -52 -5 c-87 -9 -153 -76 -153 -155 0 -87 68 -303 141 -448 101
-199 274 -411 454 -555 l40 -32 -1555 3 c-855 1 -1609 -2 -1675 -6 -327 -22
-561 -48 -789 -87 -96 -17 -134 -62 -88 -104 33 -29 396 -80 747 -106 289 -20
905 -32 1390 -25 270 4 4079 6 8465 4 8785 -3 8436 -3 8640 11 235 17 600 81
637 111 17 15 17 64 -2 82 -25 26 -252 73 -500 104 -130 16 -260 18 -1745 15
l-1605 -3 35 28 c211 171 362 360 474 593 63 133 127 333 128 403 0 63 -29
116 -78 144 -34 20 -54 23 -149 23 l-110 0 110 66 c614 368 1083 914 1354
1572 213 519 293 1113 222 1662 -11 85 -52 308 -90 495 -291 1413 -511 2488
-511 2495 0 5 75 75 168 157 808 719 1481 1501 2058 2393 1359 2099 1994 4595
1809 7110 -172 2326 -1033 4519 -2494 6349 -487 610 -1092 1220 -1716 1732
-876 719 -1897 1325 -2965 1759 -1374 558 -2869 845 -4370 838 -168 0 -386 -5
-485 -9z m-5368 -6511 c34 -34 37 -43 41 -100 4 -79 -19 -121 -82 -149 -43
-19 -76 -19 -1339 -17 -1291 3 -1296 3 -1323 24 -95 70 -97 197 -5 260 l36 24
1317 -2 1318 -3 37 -37z m10501 22 c102 -63 96 -222 -12 -271 -40 -18 -177
-19 -4615 -19 -4566 0 -4575 0 -4615 20 -55 27 -79 63 -83 124 -5 61 18 110
67 144 l33 22 4596 0 c4568 0 4596 0 4629 -20z m4362 1 c49 -26 83 -93 77
-150 -5 -47 -27 -83 -71 -115 -27 -21 -34 -21 -1174 -24 -1037 -2 -1151 -1
-1190 14 -114 43 -126 209 -20 274 32 20 53 20 1188 20 1106 0 1157 -1 1190
-19z m-8635 -741 c123 -20 269 -57 340 -85 l40 -15 -40 4 c-347 42 -615 29
-905 -44 -230 -58 -395 -128 -709 -304 -648 -362 -1339 -871 -1905 -1404 -55
-52 -118 -105 -140 -119 -57 -35 -94 -71 -126 -120 -23 -36 -87 -106 -375
-410 l-50 -53 -75 14 c-41 7 -106 16 -144 19 -37 4 -70 8 -72 10 -2 1 47 59
108 127 765 857 1719 1621 2648 2120 317 170 588 254 910 284 101 9 379 -4
495 -24z m-7459 -546 c111 -53 110 -220 -1 -274 -40 -19 -62 -20 -737 -20
l-695 0 -33 23 c-48 32 -72 69 -77 119 -7 60 24 121 75 147 36 19 60 20 735
21 625 0 703 -2 733 -16z m4943 -16 c-24 -18 -119 -87 -210 -155 l-167 -123
-1555 2 -1556 3 -28 21 c-89 67 -86 199 7 261 l33 23 1760 0 1761 0 -45 -32z
m8072 9 c46 -30 83 -106 75 -151 -9 -48 -46 -98 -86 -118 -33 -17 -134 -18
-1680 -18 l-1645 0 -150 113 c-82 62 -177 131 -210 155 l-60 42 1861 0 1861 0
34 -23z m3079 1 c55 -38 75 -73 75 -133 0 -58 -18 -91 -69 -129 -27 -21 -35
-21 -1029 -24 -939 -2 -1004 -1 -1037 15 -104 53 -109 211 -8 273 32 20 53 20
1034 20 l1001 0 33 -22z m-8370 -1189 c813 -52 1631 -286 2265 -649 69 -39
125 -73 125 -75 0 -1 -64 22 -142 51 -552 210 -1268 376 -1893 439 -195 19
-446 35 -560 35 l-91 0 -35 -46 c-48 -66 -129 -120 -223 -151 -111 -35 -283
-38 -399 -5 -88 25 -179 68 -225 107 l-31 26 -138 -31 c-351 -77 -628 -189
-883 -358 -85 -56 -149 -110 -247 -207 -135 -134 -167 -155 -239 -155 -37 0
-74 10 -74 20 0 17 116 159 199 243 251 257 578 449 990 581 285 92 654 158
991 179 133 8 459 6 610 -4z m-4271 -96 c-7 -10 -52 -58 -99 -108 -47 -49
-104 -111 -128 -137 l-42 -48 -2307 0 -2306 0 -42 25 c-45 26 -75 79 -75 132
0 45 37 107 77 131 l38 22 2449 0 c2330 0 2448 -1 2435 -17z m12647 -9 c51
-38 69 -71 69 -129 0 -60 -20 -95 -75 -132 l-33 -23 -2496 0 -2497 0 -148 155
-148 155 2650 -2 2651 -3 27 -21z m-11719 -400 c29 -24 43 -42 39 -53 -2 -9
-12 -36 -22 -61 -22 -58 -22 -211 0 -303 9 -38 34 -116 56 -175 30 -79 39
-114 34 -139 -3 -18 -9 -33 -13 -33 -9 0 -111 168 -155 258 -60 119 -98 246
-104 343 -6 104 1 148 30 184 18 23 27 26 55 22 19 -4 55 -23 80 -43z m-977
-544 c12 -8 11 -10 -6 -10 -38 0 -143 -60 -179 -103 -38 -44 -65 -118 -65
-177 0 -32 16 -103 34 -155 17 -46 -87 86 -121 154 -30 59 -37 85 -38 132 0
51 4 62 30 90 30 32 75 56 130 69 44 12 198 11 215 0z m-3393 -346 c94 -70 98
-196 7 -258 l-39 -26 -705 0 c-794 0 -751 -4 -797 76 -35 61 -28 131 20 183
48 52 30 51 784 48 694 -2 702 -2 730 -23z m2383 21 c0 -2 -45 -72 -100 -155
l-100 -150 -473 0 c-453 0 -473 1 -505 20 -102 63 -96 222 12 271 38 17 77 19
604 19 309 0 562 -2 562 -5z m13706 -21 c44 -32 66 -68 71 -115 6 -57 -28
-124 -77 -150 -33 -18 -106 -19 -2037 -19 l-2002 0 -105 155 -104 155 2113 -2
2114 -3 27 -21z m-13292 -28 c3 -14 33 -65 66 -115 l61 -90 -80 -115 c-651
-929 -1079 -1919 -1235 -2851 -74 -445 -86 -971 -31 -1339 33 -219 222 -763
372 -1071 13 -27 17 -41 8 -30 -29 36 -224 439 -290 599 -141 340 -246 687
-267 881 -20 183 -17 722 5 905 127 1051 545 2074 1270 3108 55 78 103 142
107 142 4 0 11 -11 14 -24z m1224 -839 c4 -66 -16 -98 -129 -205 -273 -258
-452 -609 -544 -1067 -71 -350 -74 -857 -9 -1305 41 -285 139 -684 238 -978
31 -90 56 -169 56 -176 0 -8 -8 -24 -18 -36 l-18 -22 -31 73 c-55 130 -160
429 -207 586 -112 377 -187 765 -217 1120 -15 187 -7 611 16 753 87 556 292
940 633 1184 72 52 204 127 217 123 5 -2 11 -24 13 -50z m-2388 -403 c0 -3
-27 -66 -60 -141 -33 -74 -60 -139 -60 -143 0 -5 -4 -11 -9 -15 -5 -3 -672 -5
-1481 -5 -1612 0 -1504 -4 -1549 59 -44 61 -39 139 11 196 16 19 44 39 62 44
33 10 3086 15 3086 5z m12220 -16 c49 -25 90 -89 90 -139 0 -42 -42 -110 -80
-131 -33 -17 -65 -18 -589 -16 l-553 3 -60 135 c-33 74 -62 143 -65 153 -5 16
28 17 604 17 l609 0 44 -22z m2202 12 c49 -14 95 -71 104 -127 5 -34 1 -53
-17 -90 -44 -87 -9 -83 -695 -83 l-601 0 -33 23 c-102 68 -94 219 14 268 38
17 77 19 616 19 364 0 589 -4 612 -10z m-9957 -1289 c182 -121 217 -142 440
-263 444 -241 960 -414 1460 -488 247 -37 359 -44 660 -44 430 -1 723 33 1161
132 l41 9 7 -96 c34 -472 149 -989 293 -1316 78 -180 213 -368 322 -451 l52
-39 -5 -340 c-4 -362 -15 -485 -62 -715 -146 -710 -554 -1362 -1120 -1788
-531 -399 -1188 -652 -1879 -723 -147 -15 -541 -15 -690 0 -588 59 -1110 233
-1605 532 -241 147 -410 280 -608 483 -182 187 -318 363 -432 561 -202 350
-328 704 -392 1105 -19 119 -22 186 -25 580 l-5 446 113 174 c491 765 632
1172 752 2177 17 150 34 273 37 273 3 0 26 -28 50 -62 25 -35 95 -113 155
-173 270 -271 596 -415 1032 -455 66 -6 134 -8 150 -4 68 17 103 64 103 137 0
39 -7 54 -53 113 -106 136 -202 300 -241 412 l-14 39 86 -64 c48 -36 146 -104
217 -152z m-4915 4 c0 -2 -9 -46 -20 -97 -10 -51 -24 -119 -30 -150 l-11 -58
-1288 0 -1288 0 -33 23 c-49 33 -72 82 -67 140 5 60 30 95 87 125 l44 22 1303
0 c717 0 1303 -2 1303 -5z m14885 -14 c49 -22 69 -44 85 -94 14 -46 6 -100
-22 -139 -44 -62 62 -58 -1552 -58 l-1476 0 -4 23 c-20 96 -56 275 -56 281 0
3 672 6 1493 6 1426 0 1494 -1 1532 -19z m-15911 -1299 c17 -10 41 -34 54 -53
20 -28 23 -44 20 -92 -4 -49 -9 -62 -38 -92 -19 -19 -50 -40 -70 -45 -51 -14
-1513 -13 -1565 1 -109 30 -150 162 -77 247 15 18 43 38 62 45 27 9 227 11
810 9 722 -2 776 -4 804 -20z m15930 0 c34 -19 76 -92 76 -132 0 -42 -42 -113
-80 -135 -34 -20 -51 -20 -705 -20 -626 0 -672 1 -703 18 -120 66 -94 259 40
286 16 3 324 5 685 3 605 -2 659 -4 687 -20z m-2564 -4 c49 -34 72 -83 67
-141 -5 -60 -30 -95 -87 -124 -40 -21 -58 -23 -198 -23 l-154 0 5 23 c3 12 9
82 13 155 l7 132 157 0 c146 0 159 -2 190 -22z m-10448 -289 c29 -6 56 -17 60
-23 4 -6 26 -67 49 -136 42 -127 185 -489 233 -590 l26 -55 0 -365 c1 -330 6
-452 26 -634 l7 -59 -47 6 c-261 36 -590 438 -744 907 -145 441 -129 764 44
897 77 58 217 79 346 52z m8325 -4 c179 -53 263 -244 233 -531 -22 -217 -86
-433 -190 -649 -102 -209 -191 -339 -324 -471 -95 -94 -123 -117 -196 -152
-47 -22 -100 -44 -119 -48 l-34 -6 7 68 c20 186 26 324 26 596 l0 296 69 109
c118 185 247 459 327 690 l39 113 56 0 c30 0 78 -7 106 -15z m-9985 -1120 c37
-82 67 -153 67 -158 1 -4 -660 -6 -1468 -5 -1467 3 -1470 3 -1497 24 -93 69
-97 193 -10 259 25 18 47 21 224 25 108 3 741 6 1407 5 l1209 0 68 -150z
m14663 129 c56 -28 90 -96 80 -160 -8 -55 -64 -117 -115 -127 -18 -4 -669 -7
-1447 -7 -1171 0 -1419 2 -1446 14 -96 40 -126 165 -59 244 55 66 -38 63 1527
59 1402 -3 1421 -3 1460 -23z m-13432 -1994 c-5 -4 -55 -24 -113 -45 -308
-112 -637 -298 -906 -512 -136 -109 -385 -356 -490 -488 -261 -326 -452 -680
-577 -1070 -46 -145 -66 -226 -148 -625 -37 -184 -100 -488 -139 -675 -39
-187 -109 -524 -155 -750 -46 -225 -134 -653 -195 -950 -203 -987 -194 -929
-194 -1295 0 -287 8 -380 55 -620 86 -434 283 -876 556 -1245 l74 -100 -109
110 c-469 476 -759 1112 -823 1808 -15 161 -7 492 15 645 18 117 32 189 361
1792 108 525 234 1141 281 1369 103 506 111 542 167 711 152 461 397 859 737
1201 169 170 223 217 377 332 284 210 629 380 978 483 l150 44 53 -57 c29 -31
49 -60 45 -63z m10202 -2106 c289 -57 531 -281 625 -579 44 -139 42 -187 -74
-1500 -58 -660 -176 -1996 -261 -2970 -85 -973 -160 -1798 -166 -1833 -33
-181 -167 -333 -353 -401 l-71 -26 -5310 0 c-5179 0 -5311 0 -5365 19 -91 31
-150 65 -208 120 -105 98 -155 201 -172 353 -5 49 -37 401 -70 783 -33 382
-62 718 -65 745 -7 67 -35 390 -90 1020 -25 286 -47 545 -50 575 -3 30 -9 105
-15 165 -5 61 -12 137 -15 170 -17 188 -81 923 -115 1320 -22 253 -43 483 -45
510 -27 272 -57 658 -57 731 1 158 48 310 138 445 57 86 183 205 272 259 91
53 234 100 337 108 44 4 2548 6 5565 5 4978 -2 5492 -4 5565 -19z m-11419
-7402 c133 -127 303 -209 484 -232 61 -8 1611 -10 5390 -8 l5305 3 73 23 c161
50 280 120 389 229 l64 63 159 -2 159 -3 -43 -91 c-199 -419 -597 -698 -1061
-744 -79 -8 -1551 -10 -5195 -8 -4859 3 -5088 4 -5160 22 -104 25 -210 61
-299 102 -176 81 -379 247 -498 409 -48 64 -138 224 -162 288 l-11 27 163 0
162 0 81 -78z"/>
<path d="M18215 19155 c-156 -29 -292 -102 -397 -213 -58 -62 -130 -184 -116
-197 3 -3 58 12 121 34 212 73 293 86 532 85 240 0 314 -12 549 -88 75 -24
136 -41 136 -39 0 3 -15 35 -32 72 -39 80 -145 190 -234 244 -165 100 -370
137 -559 102z"/>
<path d="M21565 19156 c-164 -32 -282 -94 -395 -206 -66 -66 -140 -176 -140
-208 0 -6 39 3 88 20 251 85 426 113 665 105 181 -6 293 -28 476 -92 57 -20
106 -33 109 -30 4 3 -9 36 -28 73 -73 144 -239 271 -420 322 -97 27 -260 34
-355 16z"/>
<path d="M18380 18514 c-104 -38 -202 -134 -261 -257 -56 -117 -72 -204 -66
-352 9 -192 58 -315 172 -431 98 -99 143 -119 270 -119 88 0 107 3 159 27 119
56 227 202 272 368 25 90 25 291 0 380 -46 168 -152 311 -272 367 -74 35 -203
42 -274 17z m283 -294 c72 -63 76 -212 7 -282 -40 -40 -79 -38 -118 6 -67 77
-56 237 20 290 32 23 53 20 91 -14z"/>
<path d="M21468 18507 c-136 -58 -233 -178 -289 -357 -31 -98 -34 -299 -6
-400 46 -167 153 -311 273 -368 51 -23 71 -27 154 -27 88 0 101 3 162 33 170
84 288 309 288 552 0 239 -114 460 -282 550 -56 30 -73 34 -153 37 -77 3 -98
0 -147 -20z m71 -280 c27 -23 51 -91 51 -149 0 -67 -12 -103 -48 -140 -75 -80
-172 20 -159 163 10 117 90 181 156 126z"/>
<path d="M19000 16705 c0 -15 57 -116 95 -170 102 -143 262 -255 437 -306 103
-29 324 -38 430 -16 161 34 354 125 458 218 40 36 42 38 13 25 -123 -60 -360
-99 -613 -100 -175 0 -190 1 -274 27 -159 49 -337 150 -482 273 -35 30 -64 52
-64 49z"/>
<path d="M19846 12474 c-694 -108 -1253 -649 -1395 -1351 -40 -194 -44 -457
-11 -647 64 -365 257 -723 528 -978 l79 -74 6 -124 c3 -69 13 -148 21 -175 33
-109 141 -222 253 -266 76 -30 213 -33 290 -6 52 18 53 18 110 -4 46 -18 78
-23 158 -23 87 -1 107 3 155 25 l55 25 63 -29 c87 -41 208 -48 301 -18 l64 20
76 -26 c66 -22 88 -25 164 -20 75 4 99 10 161 41 89 43 156 112 197 201 27 56
32 81 40 197 9 133 9 133 41 162 18 16 56 49 83 73 199 177 379 461 469 741
58 180 79 317 79 522 0 436 -137 815 -417 1148 -264 314 -645 526 -1048 586
-130 20 -398 20 -522 0z m518 -270 c518 -88 960 -475 1130 -988 55 -166 70
-265 70 -471 0 -212 -16 -313 -75 -482 -103 -291 -265 -506 -552 -730 -30 -23
-29 -18 -42 -252 -3 -57 -12 -116 -20 -130 -60 -117 -245 -108 -285 14 -6 17
-9 67 -8 112 3 88 -8 113 -47 113 -35 0 -42 -17 -50 -120 -4 -52 -13 -107 -21
-121 -30 -58 -124 -88 -195 -61 -36 14 -89 78 -90 110 -1 15 -1 54 0 88 1 48
-2 66 -19 87 -26 32 -67 36 -101 8 -21 -17 -24 -28 -25 -104 -2 -100 -19 -139
-74 -169 -45 -25 -129 -20 -168 9 -50 37 -65 76 -64 166 2 91 -13 127 -51 127
-39 0 -47 -18 -47 -112 0 -95 -10 -126 -53 -167 -27 -25 -96 -38 -141 -27 -37
9 -93 62 -105 99 -5 18 -12 103 -14 189 l-5 157 -44 37 c-118 103 -268 266
-331 360 -114 172 -197 377 -234 577 -23 127 -23 390 0 512 89 461 370 841
773 1043 268 135 579 179 888 126z"/>
<path d="M20586 11039 c-113 -27 -224 -121 -279 -237 -28 -60 -32 -77 -32
-157 0 -107 19 -169 75 -248 45 -62 121 -117 198 -142 81 -27 219 -17 297 20
281 135 320 523 69 701 -88 63 -220 88 -328 63z"/>
<path d="M19466 11029 c-109 -26 -215 -114 -264 -219 -23 -48 -26 -69 -26
-160 -1 -98 1 -110 31 -172 44 -94 109 -160 202 -206 72 -36 79 -37 181 -37
96 0 110 3 165 29 33 17 81 52 108 78 27 27 60 74 75 106 24 51 27 68 27 172
0 106 -2 120 -28 172 -88 180 -287 280 -471 237z"/>
</g>
</svg>
